<!-- Trophy Icon -->
<svg class="stat-icon" viewBox="0 0 24 24" fill="none" stroke="currentColor" stroke-width="2">
  <path d="M6 9H4.5a2.5 2.5 0 0 1 0-5H6"></path>
  <path d="M18 9h1.5a2.5 2.5 0 0 0 0-5H18"></path>
  <path d="M4 22h16"></path>
  <path d="M10 14.66V17c0 .55-.47.98-.97 1.21C7.85 18.75 7 20.24 7 22"></path>
  <path d="M14 14.66V17c0 .55.47.98.97 1.21C16.15 18.75 17 20.24 17 22"></path>
  <path d="M18 2H6v7a6 6 0 0 0 12 0V2Z"></path>
</svg>

<!-- Fire Icon -->
<svg class="stat-icon" viewBox="0 0 24 24" fill="none" stroke="currentColor" stroke-width="2">
  <path d="M8.5 14.5A2.5 2.5 0 0 0 11 12c0-1.38-.5-2-1-3-1.072-2.143-.224-4.054 2-6 .5 2.5 2 4.9 4 6.5 2 1.6 3 3.5 3 5.5a7 7 0 1 1-14 0c0-1.153.433-2.294 1-3a2.5 2.5 0 0 0 2.5 2.5z"></path>
</svg>

<!-- Book Icon -->
<svg class="stat-icon" viewBox="0 0 24 24" fill="none" stroke="currentColor" stroke-width="2">
  <path d="M4 19.5v-15A2.5 2.5 0 0 1 6.5 2H20v20H6.5a2.5 2.5 0 0 1 0-5H20"></path>
</svg>

<!-- Star Icon -->
<svg class="stat-icon" viewBox="0 0 24 24" fill="none" stroke="currentColor" stroke-width="2">
  <polygon points="12 2 15.09 8.26 22 9.27 17 14.14 18.18 21.02 12 17.77 5.82 21.02 7 14.14 2 9.27 8.91 8.26 12 2"></polygon>
</svg>

<!-- Target Icon -->
<svg class="icon" viewBox="0 0 24 24" fill="none" stroke="currentColor" stroke-width="2">
  <circle cx="12" cy="12" r="10"></circle>
  <circle cx="12" cy="12" r="6"></circle>
  <circle cx="12" cy="12" r="2"></circle>
</svg>

<!-- Chart Icon -->
<svg class="icon" viewBox="0 0 24 24" fill="none" stroke="currentColor" stroke-width="2">
  <line x1="12" x2="12" y1="20" y2="10"></line>
  <line x1="18" x2="18" y1="20" y2="4"></line>
  <line x1="6" x2="6" y1="20" y2="16"></line>
</svg>

<!-- Lightbulb Icon -->
<svg class="icon" viewBox="0 0 24 24" fill="none" stroke="currentColor" stroke-width="2">
  <path d="M15 14c.2-1 .7-1.7 1.5-2.5 1-.9 1.5-2.2 1.5-3.5A6 6 0 0 0 6 8c0 1 .2 2.2 1.5 3.5.7.7 1.3 1.5 1.5 2.5"></path>
  <path d="M9 18h6"></path>
  <path d="M10 22h4"></path>
</svg>

<!-- Microphone Icon -->
<svg class="icon" viewBox="0 0 24 24" fill="none" stroke="currentColor" stroke-width="2">
  <path d="M12 2a3 3 0 0 0-3 3v7a3 3 0 0 0 6 0V5a3 3 0 0 0-3-3Z"></path>
  <path d="M19 10v2a7 7 0 0 1-14 0v-2"></path>
  <line x1="12" x2="12" y1="19" y2="22"></line>
</svg>

<!-- Dashboard Icon -->
<svg class="nav-icon" viewBox="0 0 24 24" fill="none" stroke="currentColor" stroke-width="2">
  <rect width="7" height="9" x="3" y="3" rx="1"></rect>
  <rect width="7" height="5" x="14" y="3" rx="1"></rect>
  <rect width="7" height="9" x="14" y="12" rx="1"></rect>
  <rect width="7" height="5" x="3" y="16" rx="1"></rect>
</svg>

<!-- Graduation Cap Icon -->
<svg class="nav-icon" viewBox="0 0 24 24" fill="none" stroke="currentColor" stroke-width="2">
  <path d="M22 10v6M2 10l10-5 10 5-10 5z"></path>
  <path d="M6 12v5c3 3 9 3 12 0v-5"></path>
</svg>

<!-- Book Stack Icon -->
<svg class="nav-icon" viewBox="0 0 24 24" fill="none" stroke="currentColor" stroke-width="2">
  <path d="M2 3h6a4 4 0 0 1 4 4v14a3 3 0 0 0-3-3H2z"></path>
  <path d="M22 3h-6a4 4 0 0 0-4 4v14a3 3 0 0 1 3-3h7z"></path>
</svg>

<!-- Folder Icon -->
<svg class="nav-icon" viewBox="0 0 24 24" fill="none" stroke="currentColor" stroke-width="2">
  <path d="M20 20a2 2 0 0 0 2-2V8a2 2 0 0 0-2-2h-7.9a2 2 0 0 1-1.69-.9L9.6 3.9A2 2 0 0 0 7.93 3H4a2 2 0 0 0-2 2v13a2 2 0 0 0 2 2Z"></path>
</svg>

<!-- Check Circle Icon -->
<svg class="nav-icon" viewBox="0 0 24 24" fill="none" stroke="currentColor" stroke-width="2">
  <path d="M22 11.08V12a10 10 0 1 1-5.93-9.14"></path>
  <polyline points="22 4 12 14.01 9 11.01"></polyline>
</svg>
